<?xml version="1.0" standalone="no"?>
<!DOCTYPE svg PUBLIC "-//W3C//DTD SVG 20010904//EN"
 "http://www.w3.org/TR/2001/REC-SVG-20010904/DTD/svg10.dtd">
<svg version="1.0" xmlns="http://www.w3.org/2000/svg"
 width="1002.000000pt" height="1008.000000pt" viewBox="0 0 1002.000000 1008.000000"
 preserveAspectRatio="xMidYMid meet">
<metadata>
Created by potrace 1.15, written by Peter Selinger 2001-2017
</metadata>
<g transform="translate(0.000000,1008.000000) scale(0.100000,-0.100000)"
fill="#000000" stroke="none">
<path d="M1492 10063 c9 -33 1639 -4028 1646 -4035 4 -4 242 594 530 1329 287
735 519 1340 515 1344 -8 8 -2684 1379 -2691 1379 -2 0 -2 -8 0 -17z"/>
<path d="M4280 8466 c-5 -15 -499 -1277 -1096 -2804 -598 -1527 -1089 -2788
-1091 -2802 -3 -14 34 -192 82 -395 102 -438 93 -405 108 -405 18 0 3961 1181
3970 1189 7 7 -1937 5218 -1954 5235 -5 5 -13 -2 -19 -18z"/>
<path d="M45 8221 c200 -198 2882 -2720 2889 -2718 9 3 116 262 116 280 0 11
-871 2150 -879 2159 -6 7 -2119 328 -2158 328 -13 0 -3 -15 32 -49z"/>
<path d="M8697 7213 c-13 -22 -497 -894 -511 -921 l-17 -32 926 0 c509 0 925
3 925 8 -1 5 -853 622 -1265 915 -30 21 -56 34 -58 30z"/>
<path d="M6962 6534 c-827 -348 -1505 -634 -1507 -636 -2 -2 206 -564 463
-1250 350 -936 469 -1245 478 -1235 20 22 2075 3738 2072 3745 -2 5 -679 -276
-1506 -624z"/>
<path d="M1950 2525 c-186 -433 -1050 -2518 -1046 -2523 5 -4 1584 344 1593
352 3 2 -518 2210 -522 2215 -3 2 -14 -18 -25 -44z"/>
</g>
</svg>
